<svg preserveAspectRatio="xMidYMid meet" viewBox="71.7 0 164.70000000000002 113.20107238605898" xmlns="http://www.w3.org/2000/svg" version="1.0" style="max-height: 500px" width="164.70000000000002" height="113.20107238605898">
<metadata>
Created by potrace 1.10, written by Peter Selinger 2001-2011
</metadata>
<g stroke="none" fill="#FFFFFF" transform="translate(70.000000,112.000000) scale(0.100000,-0.100000)">
<path d="M1072 1059 c-65 -32 -133 -99 -228 -224 l-86 -114 -63 -6 c-75 -8&#10;-181 8 -235 35 -52 27 -100 84 -100 120 0 20 5 30 15 30 8 0 15 7 15 15 0 20&#10;-44 20 -60 0 -8 -10 -11 -32 -7 -61 5 -50 42 -104 96 -141 46 -31 170 -57 242&#10;-50 33 3 59 3 59 2 0 -2 -21 -34 -46 -70 l-46 -65 -57 0 c-73 0 -230 -39 -307&#10;-77 -110 -53 -203 -169 -204 -252 0 -78 85 -161 166 -161 104 0 252 127 384&#10;327 l73 111 26 -16 25 -17 -18 31 -18 31 55 89 c54 87 57 90 119 113 169 63&#10;348 225 348 316 0 26 -38 55 -72 55 -18 0 -52 -10 -76 -21z m101 -25 c14 -15&#10;-21 -70 -83 -127 -60 -55 -227 -163 -238 -152 -5 4 64 98 127 174 25 30 65 67&#10;90 83 41 26 89 36 104 22z m-619 -616 c-125 -180 -206 -268 -283 -307 -55 -29&#10;-84 -26 -125 10 -68 59 -54 131 42 221 73 68 165 111 313 143 119 25 118 26&#10;53 -67z"/>
<path d="M1490 1046 c-156 -42 -414 -250 -513 -413 -42 -70 -91 -182 -83 -191&#10;3 -3 1 -11 -5 -18 -25 -30 17 -23 79 14 95 57 163 108 367 279 267 223 317&#10;283 265 325 -26 21 -47 22 -110 4z 90 -35 c0 -4 -10 -21 -22 -36 l-21 -27&#10;-14 23 c13 23 -14 23 -8 -7 6 -30 2 -35 -100 -115 -58 -46 -110 -83 -116 -81&#10;-6 1 -8 -2 -5 -7 3 -5 -7 -17 -22 -27 -15 -9 -57 -44 -93 -76 -36 -32 -69 -58&#10;-72 -58 -4 0 -4 20 0 45 3 28 2 45 -5 45 -13 0 -22 -61 -11 -81 10 -20 -63&#10;-95 -82 -84 -7 5 -10 4 -6 -2 6 -9 -63 -73 -78 -73 -10 0 67 145 110 205 96&#10;135 266 270 430 341 51 23 115 31 115 15z"/>


<path d="M839 358 c-47 -40 -47 -88 2 -113 68 -36 133 51 79 105 -23 23 -59&#10;26 -81 8z m61 -22 c6 -8 10 -25 8 -38 -6 -42 -78 -32 -78 11 0 37 46 55 70 27z"/>

</g>
</svg>